<svg width="127" height="12" viewBox="0 0 127 12" fill="none" xmlns="http://www.w3.org/2000/svg">
<path d="M9.81716 3.96838H7.48406C7.44145 3.66654 7.35445 3.39843 7.22306 3.16405C7.09166 2.92612 6.92299 2.72371 6.71702 2.55681C6.51105 2.3899 6.27313 2.26206 6.00324 2.17328C5.73691 2.08451 5.44749 2.04012 5.13499 2.04012C4.57036 2.04012 4.07852 2.18039 3.65949 2.46093C3.24046 2.73791 2.91553 3.14274 2.6847 3.67542C2.45388 4.20453 2.33847 4.84729 2.33847 5.60368C2.33847 6.38138 2.45388 7.03479 2.6847 7.56391C2.91908 8.09303 3.24578 8.49253 3.66482 8.76242C4.08385 9.0323 4.56858 9.16725 5.11901 9.16725C5.42796 9.16725 5.71382 9.12641 5.97661 9.04473C6.24294 8.96306 6.47909 8.84409 6.68506 8.68784C6.89102 8.52804 7.06148 8.33451 7.19642 8.10723C7.33492 7.87996 7.4308 7.62073 7.48406 7.32953L9.81716 7.34019C9.75679 7.8409 9.60587 8.32385 9.36439 8.78905C9.12647 9.2507 8.80509 9.66441 8.40026 10.0302C7.99898 10.3924 7.51958 10.68 6.96205 10.8931C6.40807 11.1026 5.78129 11.2074 5.08172 11.2074C4.10871 11.2074 3.23868 10.9872 2.47164 10.5469C1.70814 10.1065 1.10445 9.46909 0.660556 8.63458C0.220215 7.80006 4.43943e-05 6.78976 4.43943e-05 5.60368C4.43943e-05 4.41405 0.223766 3.40198 0.671209 2.56746C1.11865 1.73294 1.7259 1.09729 2.49294 0.6605C3.25999 0.220159 4.12291 -1.15037e-05 5.08172 -1.15037e-05C5.71382 -1.15037e-05 6.29976 0.0887669 6.83953 0.266324C7.38286 0.443881 7.86404 0.703113 8.28307 1.04402C8.7021 1.38138 9.04301 1.79509 9.3058 2.28514C9.57213 2.7752 9.74259 3.33628 9.81716 3.96838ZM25.996 5.60368C25.996 6.79331 25.7705 7.80539 25.3195 8.6399C24.872 9.47442 24.2612 10.1118 23.4871 10.5522C22.7165 10.989 21.85 11.2074 20.8877 11.2074C19.9182 11.2074 19.0482 10.9872 18.2776 10.5469C17.507 10.1065 16.8979 9.46909 16.4505 8.63458C16.0031 7.80006 15.7793 6.78976 15.7793 5.60368C15.7793 4.41405 16.0031 3.40198 16.4505 2.56746C16.8979 1.73294 17.507 1.09729 18.2776 0.6605C19.0482 0.220159 19.9182 -1.15037e-05 20.8877 -1.15037e-05C21.85 -1.15037e-05 22.7165 0.220159 23.4871 0.6605C24.2612 1.09729 24.872 1.73294 25.3195 2.56746C25.7705 3.40198 25.996 4.41405 25.996 5.60368ZM23.6575 5.60368C23.6575 4.83309 23.5421 4.18323 23.3113 3.65411C23.084 3.12499 22.7627 2.72371 22.3472 2.45027C21.9317 2.17684 21.4452 2.04012 20.8877 2.04012C20.3301 2.04012 19.8436 2.17684 19.4281 2.45027C19.0127 2.72371 18.6895 3.12499 18.4587 3.65411C18.2314 4.18323 18.1178 4.83309 18.1178 5.60368C18.1178 6.37428 18.2314 7.02414 18.4587 7.55326C18.6895 8.08238 19.0127 8.48365 19.4281 8.75709C19.8436 9.03053 20.3301 9.16725 20.8877 9.16725C21.4452 9.16725 21.9317 9.03053 22.3472 8.75709C22.7627 8.48365 23.084 8.08238 23.3113 7.55326C23.5421 7.02414 23.6575 6.37428 23.6575 5.60368ZM38.1225 3.28657C38.0799 2.85688 37.897 2.52307 37.5738 2.28514C37.2507 2.04722 36.8121 1.92826 36.2581 1.92826C35.8817 1.92826 35.5639 1.98152 35.3046 2.08806C35.0454 2.19104 34.8465 2.33486 34.7081 2.51952C34.5731 2.70418 34.5056 2.9137 34.5056 3.14807C34.4985 3.34338 34.5394 3.51384 34.6282 3.65943C34.7205 3.80503 34.8465 3.9311 35.0063 4.03763C35.1661 4.14061 35.3508 4.23117 35.5603 4.30929C35.7698 4.38387 35.9936 4.44779 36.2315 4.50105L37.2116 4.73543C37.6875 4.84196 38.1242 4.98401 38.522 5.16157C38.9197 5.33912 39.2642 5.55752 39.5554 5.81675C39.8465 6.07598 40.072 6.38138 40.2318 6.73294C40.3952 7.08451 40.4786 7.48756 40.4822 7.94211C40.4786 8.60972 40.3082 9.18855 39.9708 9.67861C39.637 10.1651 39.1541 10.5433 38.522 10.8132C37.8934 11.0795 37.1353 11.2127 36.2475 11.2127C35.3668 11.2127 34.5997 11.0778 33.9463 10.8079C33.2965 10.538 32.7887 10.1385 32.4229 9.60936C32.0607 9.07669 31.8707 8.41796 31.8529 7.63316H34.0848C34.1097 7.99892 34.2144 8.30432 34.3991 8.54935C34.5873 8.79083 34.8377 8.97371 35.1502 9.098C35.4662 9.21874 35.8231 9.27911 36.2208 9.27911C36.6115 9.27911 36.9506 9.22229 37.2382 9.10865C37.5294 8.99502 37.7549 8.83699 37.9147 8.63458C38.0745 8.43216 38.1544 8.19956 38.1544 7.93678C38.1544 7.69175 38.0816 7.48578 37.936 7.31888C37.794 7.15198 37.5845 7.00993 37.3075 6.89274C37.034 6.77556 36.6985 6.66902 36.3007 6.57314L35.1129 6.27485C34.1931 6.05113 33.4669 5.70134 32.9343 5.22549C32.4016 4.74963 32.137 4.10865 32.1406 3.30255C32.137 2.64203 32.3128 2.06497 32.6679 1.57137C33.0266 1.07776 33.5184 0.69246 34.1434 0.415472C34.7684 0.138483 35.4786 -1.15037e-05 36.2741 -1.15037e-05C37.0838 -1.15037e-05 37.7904 0.138483 38.3941 0.415472C39.0014 0.69246 39.4737 1.07776 39.811 1.57137C40.1484 2.06497 40.3224 2.63671 40.3331 3.28657H38.1225ZM46.5336 0.149136H49.3781L52.3823 7.47868H52.5102L55.5144 0.149136H58.3589V11.0582H56.1217V3.95773H56.0311L53.208 11.005H51.6845L48.8614 3.9311H48.7708V11.0582H46.5336V0.149136ZM66.6395 11.0582H64.1679L67.9339 0.149136H70.9062L74.6669 11.0582H72.1953L69.4627 2.64203H69.3774L66.6395 11.0582ZM66.485 6.77023H72.3231V8.57066H66.485V6.77023ZM78.7314 2.05077V0.149136H87.6909V2.05077H84.3511V11.0582H82.0712V2.05077H78.7314ZM95.9729 0.149136V11.0582H93.6664V0.149136H95.9729ZM111.996 3.96838H109.663C109.62 3.66654 109.533 3.39843 109.402 3.16405C109.27 2.92612 109.102 2.72371 108.896 2.55681C108.69 2.3899 108.452 2.26206 108.182 2.17328C107.916 2.08451 107.626 2.04012 107.314 2.04012C106.749 2.04012 106.257 2.18039 105.838 2.46093C105.419 2.73791 105.094 3.14274 104.863 3.67542C104.633 4.20453 104.517 4.84729 104.517 5.60368C104.517 6.38138 104.633 7.03479 104.863 7.56391C105.098 8.09303 105.424 8.49253 105.844 8.76242C106.263 9.0323 106.747 9.16725 107.298 9.16725C107.607 9.16725 107.893 9.12641 108.155 9.04473C108.422 8.96306 108.658 8.84409 108.864 8.68784C109.07 8.52804 109.24 8.33451 109.375 8.10723C109.514 7.87996 109.61 7.62073 109.663 7.32953L111.996 7.34019C111.936 7.8409 111.785 8.32385 111.543 8.78905C111.305 9.2507 110.984 9.66441 110.579 10.0302C110.178 10.3924 109.698 10.68 109.141 10.8931C108.587 11.1026 107.96 11.2074 107.26 11.2074C106.287 11.2074 105.417 10.9872 104.65 10.5469C103.887 10.1065 103.283 9.46909 102.839 8.63458C102.399 7.80006 102.179 6.78976 102.179 5.60368C102.179 4.41405 102.402 3.40198 102.85 2.56746C103.297 1.73294 103.905 1.09729 104.672 0.6605C105.439 0.220159 106.302 -1.15037e-05 107.26 -1.15037e-05C107.893 -1.15037e-05 108.478 0.0887669 109.018 0.266324C109.562 0.443881 110.043 0.703113 110.462 1.04402C110.881 1.38138 111.222 1.79509 111.485 2.28514C111.751 2.7752 111.921 3.33628 111.996 3.96838ZM124.068 3.28657C124.025 2.85688 123.842 2.52307 123.519 2.28514C123.196 2.04722 122.757 1.92826 122.203 1.92826C121.827 1.92826 121.509 1.98152 121.25 2.08806C120.991 2.19104 120.792 2.33486 120.653 2.51952C120.518 2.70418 120.451 2.9137 120.451 3.14807C120.444 3.34338 120.485 3.51384 120.573 3.65943C120.666 3.80503 120.792 3.9311 120.952 4.03763C121.111 4.14061 121.296 4.23117 121.506 4.30929C121.715 4.38387 121.939 4.44779 122.177 4.50105L123.157 4.73543C123.633 4.84196 124.07 4.98401 124.467 5.16157C124.865 5.33912 125.209 5.55752 125.501 5.81675C125.792 6.07598 126.017 6.38138 126.177 6.73294C126.341 7.08451 126.424 7.48756 126.428 7.94211C126.424 8.60972 126.254 9.18855 125.916 9.67861C125.582 10.1651 125.099 10.5433 124.467 10.8132C123.839 11.0795 123.081 11.2127 122.193 11.2127C121.312 11.2127 120.545 11.0778 119.892 10.8079C119.242 10.538 118.734 10.1385 118.368 9.60936C118.006 9.07669 117.816 8.41796 117.798 7.63316H120.03C120.055 7.99892 120.16 8.30432 120.344 8.54935C120.533 8.79083 120.783 8.97371 121.095 9.098C121.412 9.21874 121.768 9.27911 122.166 9.27911C122.557 9.27911 122.896 9.22229 123.184 9.10865C123.475 8.99502 123.7 8.83699 123.86 8.63458C124.02 8.43216 124.1 8.19956 124.1 7.93678C124.1 7.69175 124.027 7.48578 123.881 7.31888C123.739 7.15198 123.53 7.00993 123.253 6.89274C122.979 6.77556 122.644 6.66902 122.246 6.57314L121.058 6.27485C120.138 6.05113 119.412 5.70134 118.88 5.22549C118.347 4.74963 118.082 4.10865 118.086 3.30255C118.082 2.64203 118.258 2.06497 118.613 1.57137C118.972 1.07776 119.464 0.69246 120.089 0.415472C120.714 0.138483 121.424 -1.15037e-05 122.219 -1.15037e-05C123.029 -1.15037e-05 123.736 0.138483 124.339 0.415472C124.947 0.69246 125.419 1.07776 125.756 1.57137C126.094 2.06497 126.268 2.63671 126.278 3.28657H124.068Z" fill="#434C6D"/>
</svg>
