<svg width="120" height="46" viewBox="0 0 120 46" fill="none" xmlns="http://www.w3.org/2000/svg">
<g clip-path="url(#clip0_1037_520)">
<path d="M5.67995 36.4281H5.28225V32.7313H4.82861V32.3655H5.28225V30.9126H5.67995V32.3655H6.39665V32.7313H5.67995V36.4281ZM8.5509 29.17V32.9943H8.56954C8.68403 32.7744 8.85811 32.5906 9.07219 32.4635C9.28627 32.3364 9.53186 32.2712 9.7813 32.2751C10.8377 32.2751 11.1277 32.9244 11.1277 33.9725V36.424H10.7321V33.9725C10.7321 33.2429 10.643 32.645 9.74609 32.645C8.71868 32.645 8.5509 33.5923 8.5509 34.4184V36.4261H8.15319V29.17H8.5509ZM13.5574 34.0588C13.6026 33.6698 13.7903 33.311 14.0847 33.0503C14.3792 32.7897 14.7599 32.6454 15.1545 32.645C15.9955 32.645 16.6169 33.3108 16.7142 34.0588H13.5574ZM17.1099 34.4328C17.1182 33.2614 16.3828 32.2771 15.1441 32.2771C13.9469 32.2771 13.1577 33.2532 13.1577 34.3834C13.1577 35.5363 13.9303 36.5103 15.1441 36.5103C15.5229 36.5186 15.8962 36.4201 16.2207 36.2262C16.5452 36.0323 16.8076 35.751 16.9773 35.415L16.6397 35.2178C16.3497 35.7644 15.8339 36.1404 15.1959 36.1404C14.2472 36.1404 13.5305 35.4582 13.5554 34.4307H17.1099V34.4328ZM26.1743 33.3046C25.9962 33.0976 25.7748 32.9315 25.5254 32.8179C25.2761 32.7044 25.0048 32.646 24.7305 32.647C23.7652 32.647 23.0382 33.4608 23.0382 34.3855C23.0382 35.3102 23.7549 36.1425 24.7222 36.1425C25.0116 36.138 25.2965 36.0706 25.5567 35.9449C25.8169 35.8192 26.0461 35.6383 26.2281 35.415V35.9534C25.8167 36.3129 25.287 36.5109 24.7388 36.5103C23.527 36.5103 22.6384 35.5712 22.6384 34.3834C22.6384 33.208 23.5436 32.2771 24.7491 32.2771C25.2794 32.2771 25.7683 32.4333 26.1743 32.7744V33.3046ZM30.0291 32.647C30.2637 32.6414 30.497 32.683 30.715 32.7692C30.933 32.8554 31.1312 32.9844 31.2976 33.1485C31.464 33.3127 31.5952 33.5085 31.6834 33.7243C31.7715 33.94 31.8148 34.1712 31.8105 34.404C31.8122 34.6352 31.7671 34.8644 31.6778 35.078C31.5886 35.2916 31.4569 35.4852 31.2908 35.6474C31.1246 35.8095 30.9273 35.9369 30.7106 36.0219C30.4939 36.107 30.2621 36.148 30.0291 36.1425C29.0638 36.1425 28.3285 35.3287 28.3285 34.404C28.3285 33.4608 29.0535 32.647 30.0291 32.647ZM30.056 32.2771C28.8691 32.2771 27.9308 33.2368 27.9308 34.404C27.9308 35.5568 28.8774 36.5103 30.056 36.5103C31.2595 36.5103 32.2103 35.5959 32.2103 34.3917C32.2103 33.1875 31.2595 32.2771 30.056 32.2771ZM34.6379 32.871H34.6545C34.7527 32.6867 34.9011 32.5333 35.0826 32.4284C35.2642 32.3234 35.4718 32.271 35.6819 32.2771C36.206 32.2771 36.6223 32.5422 36.8336 33.0148C36.9369 32.7875 37.1062 32.5958 37.3198 32.4644C37.5334 32.333 37.7817 32.2678 38.0329 32.2771C39.0852 32.2771 39.2986 32.9881 39.2986 33.8738V36.4261H38.9009V33.8204C38.9009 33.1936 38.8035 32.645 38.0226 32.645C37.1733 32.645 36.9683 33.3827 36.9683 34.0855V36.4261H36.5706V33.917C36.5706 33.282 36.4546 32.645 35.6571 32.645C34.7974 32.645 34.6379 33.5327 34.6379 34.1903V36.4261H34.2402V32.3655H34.6379V32.871ZM43.7127 32.647C44.7152 32.647 45.3263 33.506 45.3263 34.4369C45.3263 35.3431 44.6883 36.1425 43.7293 36.1425C42.7474 36.1425 42.1012 35.4315 42.1012 34.48C42.0991 33.506 42.6666 32.647 43.7127 32.647ZM42.126 32.3655H41.7262V38.7995H42.126V35.7212H42.1447C42.4802 36.2432 43.0933 36.5124 43.723 36.5124C44.9535 36.5124 45.724 35.6164 45.724 34.4328C45.724 33.245 44.9535 32.2771 43.7044 32.2771C43.1016 32.2771 42.445 32.5751 42.1467 33.095H42.1281L42.126 32.3655ZM49.3365 32.647C50.3308 32.647 50.9771 33.3847 50.9771 34.3238C50.9771 35.2999 50.4116 36.1425 49.3634 36.1425C48.3712 36.1425 47.7519 35.2999 47.7519 34.3691C47.7519 33.4895 48.3982 32.647 49.3365 32.647ZM51.352 32.3655H50.9522V33.0683H50.9336C50.7556 32.8185 50.5187 32.6158 50.2436 32.4779C49.9684 32.34 49.6634 32.2711 49.3552 32.2771C48.1247 32.2771 47.3542 33.1792 47.3542 34.3691C47.3542 35.5589 48.133 36.5124 49.3738 36.5124C49.9745 36.5124 50.6311 36.2144 50.9315 35.6986H50.9501V36.4281H51.3499L51.352 32.3655ZM54.1773 32.9964H54.1939C54.3087 32.7763 54.4832 32.5924 54.6976 32.4653C54.9121 32.3383 55.158 32.2731 55.4077 32.2771C56.4621 32.2771 56.7562 32.9265 56.7562 33.9745V36.4261H56.3564V33.9745C56.3564 33.245 56.2674 32.647 55.3725 32.647C54.3451 32.647 54.1773 33.5943 54.1773 34.4204V36.4281H53.7776V32.3655H54.1773V32.9964ZM58.4382 32.3655H58.8545L60.6007 36.0377L62.1708 32.3655H62.5768L59.8281 38.7995H59.4242L60.406 36.4959L58.4382 32.3655ZM68.6191 36.4281H68.2234V32.7313H67.7698V32.3655H68.2234V30.5427C68.2234 30.2448 68.2317 29.8132 68.3829 29.5523C68.4765 29.3972 68.6101 29.2697 68.77 29.183C68.9299 29.0963 69.1102 29.0535 69.2923 29.0591C69.4186 29.0591 69.5325 29.0755 69.6485 29.1228V29.4803C69.5429 29.4639 69.4352 29.429 69.3192 29.429C68.6294 29.429 68.6191 30.1153 68.6191 30.6249V32.3675H69.6485V32.7333H68.6191V36.4281ZM73.1119 32.647C73.3465 32.6414 73.5798 32.683 73.7978 32.7692C74.0158 32.8554 74.2139 32.9844 74.3803 33.1485C74.5468 33.3127 74.678 33.5085 74.7661 33.7243C74.8543 33.94 74.8975 34.1712 74.8933 34.404C74.895 34.6352 74.8499 34.8644 74.7606 35.078C74.6713 35.2916 74.5397 35.4852 74.3736 35.6474C74.2074 35.8095 74.0101 35.9369 73.7934 36.0219C73.5767 36.107 73.3449 36.148 73.1119 36.1425C72.1466 36.1425 71.4134 35.3287 71.4134 34.404C71.4134 33.4608 72.1383 32.647 73.1119 32.647ZM73.1409 32.2771C72.575 32.2771 72.0324 32.5001 71.6323 32.8971C71.2321 33.294 71.0074 33.8324 71.0074 34.3937C71.0074 34.9551 71.2321 35.4934 71.6323 35.8904C72.0324 36.2873 72.575 36.5103 73.1409 36.5103C74.3444 36.5103 75.2951 35.5959 75.2951 34.3917C75.2951 33.1875 74.3444 32.2771 73.1409 32.2771ZM77.7207 32.8916H77.7394C77.8968 32.5217 78.1889 32.2771 78.6218 32.2771C78.7833 32.2771 78.918 32.3141 79.0568 32.3737L78.8455 32.723C78.7594 32.6731 78.6614 32.6469 78.5617 32.647C77.6648 32.647 77.7207 33.7546 77.7207 34.3526V36.4281H77.3189V32.3655H77.7207V32.8916ZM86.0498 35.6966L87.4935 32.1456L88.9476 35.6966L90.3645 32.3655H90.7705L88.9207 36.6439L87.477 33.1361L86.0394 36.6439L84.1979 32.3655H84.6039L86.0498 35.6966ZM94.3519 32.647C94.5865 32.6414 94.8198 32.683 95.0378 32.7692C95.2558 32.8554 95.4539 32.9844 95.6204 33.1485C95.7868 33.3127 95.918 33.5085 96.0061 33.7243C96.0943 33.94 96.1375 34.1712 96.1333 34.404C96.135 34.6352 96.0899 34.8644 96.0006 35.078C95.9113 35.2916 95.7797 35.4852 95.6136 35.6474C95.4474 35.8095 95.2501 35.9369 95.0334 36.0219C94.8167 36.107 94.5849 36.148 94.3519 36.1425C93.3866 36.1425 92.6534 35.3287 92.6534 34.404C92.6513 33.4608 93.3783 32.647 94.3519 32.647ZM94.3788 32.2771C93.1919 32.2771 92.2536 33.2368 92.2536 34.404C92.2536 35.5568 93.2002 36.5103 94.3788 36.5103C95.5844 36.5103 96.5331 35.5959 96.5331 34.3917C96.5331 33.1875 95.5864 32.2771 94.3788 32.2771ZM99.0477 32.871H99.0664C99.1647 32.6863 99.3134 32.5328 99.4954 32.4278C99.6774 32.3228 99.8854 32.2706 100.096 32.2771C100.616 32.2771 101.034 32.5422 101.248 33.0148C101.35 32.7876 101.518 32.596 101.731 32.4645C101.944 32.333 102.192 32.2678 102.443 32.2771C103.497 32.2771 103.71 32.9881 103.71 33.8738V36.4261H103.311V33.8204C103.311 33.1936 103.213 32.645 102.432 32.645C101.583 32.645 101.38 33.3827 101.38 34.0855V36.4261H100.98V33.917C100.98 33.282 100.864 32.645 100.069 32.645C99.2114 32.645 99.0498 33.5327 99.0498 34.1903V36.4261H98.6521V32.3655H99.0498L99.0477 32.871ZM106.225 34.0588C106.271 33.6702 106.459 33.3118 106.753 33.0513C107.048 32.7909 107.428 32.6463 107.822 32.645C108.663 32.645 109.282 33.3108 109.38 34.0588H106.225ZM109.78 34.4328C109.792 33.2614 109.055 32.2771 107.814 32.2771C106.617 32.2771 105.832 33.2532 105.832 34.3834C105.832 35.5363 106.598 36.5103 107.814 36.5103C108.193 36.5186 108.566 36.4201 108.89 36.2262C109.215 36.0323 109.477 35.751 109.647 35.415L109.314 35.2178C109.019 35.7644 108.506 36.1404 107.868 36.1404C106.919 36.1404 106.202 35.4582 106.227 34.4307H109.78V34.4328ZM112.296 32.9964H112.315C112.43 32.7763 112.605 32.5924 112.82 32.4654C113.035 32.3384 113.281 32.2732 113.531 32.2771C114.587 32.2771 114.875 32.9265 114.875 33.9745V36.4261H114.477V33.9745C114.477 33.245 114.388 32.647 113.492 32.647C112.464 32.647 112.296 33.5943 112.296 34.4204V36.4281H111.899V32.3655H112.296V32.9964Z" fill="#434C6D"/>
<path d="M14.2222 40.0469L14.4563 40.1825H14.2574L14.2222 40.0469ZM14.9907 40.0469C15.26 40.0756 15.5251 40.0941 15.7944 40.1147V40.0818C16.0098 40.0941 16.2191 40.1065 16.4303 40.1147H16.4635V40.1476H14.8229C14.8809 40.1147 14.9369 40.0839 14.9907 40.0469ZM13.6195 40.0839H13.7541V40.1167C13.7085 40.1085 13.6671 40.0962 13.6195 40.0839ZM14.5557 40.0839H14.593V40.1167H14.5247C14.5365 40.1073 14.547 40.0962 14.5557 40.0839ZM13.1534 40.1147H13.286V40.1476L13.1534 40.1147ZM16.6313 40.1147C16.799 40.127 16.9668 40.1393 17.1325 40.1476H17.1657V40.1846C16.9875 40.164 16.8094 40.1393 16.6313 40.1147ZM17.2672 40.1147C17.2773 40.1272 17.2892 40.1383 17.3024 40.1476L17.2672 40.1147ZM17.5012 40.1147C17.5675 40.127 17.6338 40.1393 17.7022 40.1476V40.1846C17.6123 40.1878 17.5229 40.1988 17.435 40.2174L17.5012 40.1147ZM18.0025 40.1476H18.2034V40.2524C18.126 40.2279 18.0479 40.2053 17.9694 40.1846H18.0025V40.1476ZM12.3166 40.1846L12.4512 40.349H12.3497C12.3379 40.2943 12.3268 40.2395 12.3166 40.1846ZM13.286 40.1846H13.3212V40.2174H13.286V40.1846ZM12.0825 40.2154H12.2171V40.2524L12.0825 40.2154ZM11.9147 40.2524C11.9499 40.3037 11.981 40.3613 12.0162 40.4168L11.8484 40.3798V40.3469C11.869 40.3144 11.8912 40.2829 11.9147 40.2524ZM18.6716 40.2524C18.7047 40.2688 18.7379 40.2935 18.7731 40.312L18.6716 40.2524ZM14.3217 40.312C14.4234 40.3304 14.5176 40.3775 14.593 40.4476C14.6013 40.4558 14.6137 40.4722 14.6262 40.4805V40.4168C15.2517 40.4373 15.6515 40.4496 15.8296 40.4496H15.8628V40.4825H15.8296C15.6411 40.5072 15.4526 40.5257 15.2621 40.5462V40.5832L15.3284 40.7805H15.3615L15.5272 40.6839C16.0678 40.5709 16.3226 40.912 16.3309 40.912V40.9798H16.3993V40.9469H16.4324C16.4324 40.7312 16.6665 40.7497 16.6665 40.6819H16.6333L16.7328 40.6449C16.7223 40.6577 16.7112 40.67 16.6996 40.6819L16.8011 40.8134L16.8343 40.7456C16.9461 40.7702 17.058 40.7887 17.1677 40.8134V40.7764H17.2009L17.1677 40.7435L17.234 40.6798V40.7127C17.2547 40.7538 17.2879 40.7764 17.3355 40.7764C17.2257 40.5401 17.234 40.5154 17.5344 40.5154V40.4784H17.5696C17.5592 40.4538 17.5468 40.4353 17.5344 40.4147L17.7042 40.4784L17.6711 40.5154H17.7042V40.5442C17.6131 40.5647 17.3687 40.6531 17.3687 40.7764L17.5696 40.8134V40.8771C17.5137 40.8976 17.4598 40.9243 17.4018 40.9449L17.4702 41.0764C17.3915 41.1401 17.3148 41.2079 17.234 41.2778H17.1677V41.2408H17.2009C17.2257 41.1894 17.2465 41.1319 17.2692 41.0764C17.2133 41.0887 17.1574 41.1011 17.1015 41.1093H17.0683C17.0303 41.1625 16.9971 41.2189 16.9689 41.2778C16.9337 41.2264 16.9171 40.9778 17.002 40.9778H17.0373C17.0455 40.9654 17.06 40.9572 17.0704 40.9449C16.9558 40.9211 16.8435 40.8874 16.7348 40.8442H16.7017C16.7576 40.8873 16.8135 40.9367 16.8715 40.9757V41.0435L16.7369 41.0764L16.8053 41.2079H16.77V41.2408C16.6706 41.2572 16.5691 41.2655 16.4697 41.2778C16.4596 41.2323 16.4486 41.1871 16.4365 41.1422C16.4245 41.1323 16.4134 41.1213 16.4034 41.1093H16.3019C16.2895 41.1524 16.2812 41.1976 16.2708 41.2408H16.2336L16.0678 41.1401H16.0326V41.173L15.9995 41.3785L16.1673 41.4072L16.101 41.5079H16.333C16.3889 41.4751 16.4469 41.4442 16.5028 41.4072V41.3785H16.5339C16.5898 41.4299 16.6458 41.4874 16.7017 41.5429C16.7493 41.4833 16.7908 41.4072 16.8715 41.4072L17.0041 41.6086V41.6456C16.9606 41.6456 16.7576 41.6292 16.4013 41.6086V41.7093H16.4345C16.478 41.734 16.5256 41.7525 16.567 41.7771V41.81L16.1341 41.7771C16.2004 41.7525 16.2688 41.734 16.333 41.7093V41.6456L14.9949 41.7422C14.9949 41.8018 15.0259 41.8388 15.0632 41.8778L14.9949 42.0422C15.1088 42.0176 15.1979 41.995 15.2641 41.9744V42.0751C15.2741 42.0871 15.2852 42.0981 15.2973 42.108L14.1622 42.1409C14.1705 42.0155 14.2823 41.8121 14.4294 41.8121L14.4625 41.9395C14.4943 41.9551 14.5276 41.9674 14.5619 41.9765L14.5992 41.8121L14.6987 41.7443V41.7114H14.6634C14.3548 41.6518 14.1 41.8429 13.8287 41.8429V41.9066C13.8929 41.9539 13.9612 41.9991 14.0275 42.0422L13.5615 42.1388V41.9066V41.8778H13.7272V41.81C13.5822 41.8223 13.4393 41.8347 13.2922 41.8429V41.8799H13.3274V41.9087C13.3709 41.9251 13.4165 41.9333 13.4579 41.9415H13.4931L13.3937 42.1429C12.0369 42.2559 10.7299 42.7738 9.44562 42.7738L8.58392 43.156C7.9105 43.5277 7.26959 43.9545 6.66789 44.4321C6.18111 44.8287 5.85176 45.661 5.28834 45.8685C4.48672 46.1686 3.36195 45.9322 2.69289 45.5274C2.46711 45.3959 2.15848 45.1616 2.15433 44.8657C2.14605 44.5493 3.51109 42.8067 3.7928 42.8067C4.27543 42.6382 4.80571 42.0792 5.33184 42.0792V42.0463C5.41055 42.0217 5.48927 42.0032 5.56591 41.9785H5.59905C5.75441 41.8778 5.92219 41.8059 6.1024 41.7463H6.16868L6.13347 41.8141C5.87455 42.2765 6.66789 41.8573 6.66789 41.7813H6.7031L6.87295 41.845C7.28309 41.4833 8.04536 41.3826 8.60878 41.3826C8.73099 41.3024 8.85734 41.2264 8.97748 41.1463V41.1134H9.11212V41.0805L9.54712 40.949C9.53469 40.9367 9.52433 40.9284 9.5119 40.912V40.8483C9.49089 40.8613 9.4687 40.8723 9.44562 40.8812L9.07898 40.8483C9.14112 40.801 9.20119 40.7476 9.27991 40.7476L9.31098 40.8791C9.46012 40.7825 9.52847 40.6469 9.74597 40.6469L9.88061 40.8791H10.0484C10.0836 40.7271 10.2493 40.5812 10.415 40.5812L10.4834 40.614V40.6469C10.3695 40.6716 10.2597 40.6901 10.1499 40.7147V40.7476H10.181L10.1499 40.7805V40.8175C10.3487 40.7969 10.5476 40.7743 10.7506 40.7168C10.8169 40.7291 10.8852 40.7414 10.9494 40.7497C11.1193 40.686 11.285 40.6181 11.4528 40.5483H11.9561V40.5195C12.2109 40.5195 12.4657 40.5072 12.7246 40.4825H12.7557L12.793 40.4188L12.8572 40.5195V40.4825C12.88 40.462 12.88 40.4394 12.8572 40.4188L13.8618 40.3818H13.8929L14.1953 40.4496V40.4168C14.2347 40.3798 14.2802 40.349 14.3217 40.312Z" fill="#434C6D"/>
<path d="M16.1633 40.3489L16.3291 40.4804C16.3622 40.4516 16.3498 40.4167 16.3291 40.3797L16.5983 40.5153H16.5631V40.5441L15.8609 40.5153V40.4783H15.8941V40.4455H16.0971C16.1095 40.4249 16.1178 40.4023 16.1302 40.3776C16.1406 40.3694 16.153 40.3612 16.1633 40.3489ZM11.4136 40.3797H11.4468L11.4799 40.4167L11.0822 40.4804V40.4475H11.1485V40.4146L11.1817 40.4475H11.3494L11.4157 40.4146L11.4136 40.3797ZM19.4734 40.3797C19.5293 40.4044 19.5853 40.427 19.6433 40.4475C19.5853 40.429 19.5314 40.4044 19.4734 40.3797ZM16.8676 40.4167H16.9008C16.8117 40.4578 16.7247 40.5051 16.6335 40.5441V40.5153H16.6667V40.4783L16.8676 40.4167ZM10.8792 40.4804L10.9124 40.6119H10.8792V40.579H10.8109C10.8109 40.5379 10.8337 40.5051 10.8792 40.4804ZM20.2108 40.5174L20.3765 40.5462H20.4118V40.5831C20.3455 40.5564 20.2771 40.5379 20.2108 40.5174ZM14.0899 40.5441L14.0567 40.7126H14.2908V40.6448C14.3219 40.6694 14.3571 40.6879 14.3923 40.7126V40.6797H14.4254V40.6427C14.3157 40.5934 14.2059 40.577 14.0899 40.5441ZM14.5559 40.5441C14.5352 40.5914 14.5124 40.6366 14.4897 40.6797H14.5559V40.7126H14.79L14.5559 40.5441ZM14.8915 40.5441L14.9267 40.6448C14.9122 40.614 14.906 40.5811 14.8915 40.5441ZM14.9909 40.5441V40.6119H14.9578V40.6448C15.0489 40.6119 15.138 40.5811 15.2271 40.5441H14.9909ZM17.9054 40.5441L18.0359 40.5811H18.0027V40.614C17.969 40.5925 17.9365 40.5692 17.9054 40.5441ZM18.1374 40.5441L18.504 40.6119V40.6448H18.1374V40.5441ZM13.8869 40.5811L13.688 40.7455V40.7126L13.7212 40.6448H13.6549V40.7126H13.6197V40.7763H13.688V40.8133L13.8869 40.5811ZM15.428 40.614L15.4611 40.6818C15.4497 40.6594 15.4386 40.6368 15.428 40.614ZM18.7381 40.614C18.8706 40.6345 19.0074 40.6571 19.1399 40.6818V40.7147L18.7049 40.6468C18.7153 40.6325 18.7298 40.6263 18.7381 40.614ZM11.5172 40.6448L11.5483 40.7126C11.5607 40.7249 11.5711 40.7373 11.5835 40.7455C11.5583 40.714 11.5361 40.6803 11.5172 40.6448ZM13.4208 40.6448V40.6818L12.9527 40.8133L12.9858 40.7455H12.9175L10.7094 41.0455C10.4194 41.1215 10.1315 41.1976 9.84147 41.2777L9.87668 41.3106C9.99268 41.2942 10.1045 41.2818 10.2122 41.2428V41.2798C10.1977 41.3168 10.1087 41.477 10.2122 41.477L10.2454 41.4442L10.2122 41.4072C10.2574 41.3532 10.3016 41.2984 10.3448 41.2428H10.378C10.4127 41.2216 10.4466 41.199 10.4795 41.175L11.4157 41.1113V41.1441C11.3805 41.1565 11.3494 41.1688 11.3163 41.177V41.214H11.4157C11.6063 41.0332 12.0413 40.9489 12.3188 40.9489C12.3727 40.9345 12.4286 40.9263 12.4846 40.9099C12.7994 40.8791 13.2779 40.9428 13.4208 40.6448ZM19.1731 40.6818H19.2414C19.207 40.6909 19.1731 40.7018 19.1399 40.7147L19.1731 40.6818ZM9.73997 40.7784V40.9099H9.84147C9.82924 40.8783 9.81886 40.8461 9.8104 40.8133C9.81951 40.8 9.82992 40.7876 9.84147 40.7763L9.73997 40.7784ZM14.8915 40.8133C14.9267 40.877 14.9578 40.9448 14.9909 41.0147V40.9777C14.9661 40.9181 14.9412 40.8544 14.8915 40.8133ZM16.0639 40.8133L16.2296 40.877C16.1758 40.8585 16.1178 40.8338 16.0639 40.8133ZM8.77056 40.8791C8.83684 40.9119 8.90313 40.9428 8.90313 41.0147C8.47435 41.1072 7.93579 41.1421 7.93579 41.1421L8.07043 41.0784L8.16986 41.175C8.18192 41.1651 8.19302 41.1541 8.203 41.1421V41.175C8.36969 41.0387 8.56289 40.938 8.77056 40.8791ZM13.9905 40.8791C14.0228 40.8922 14.056 40.9031 14.0899 40.9119V40.9489H14.123L13.9905 40.8791ZM20.244 40.8791H20.2771C20.2873 40.8916 20.2991 40.9026 20.3123 40.9119C20.2921 40.9273 20.2698 40.9398 20.246 40.9489L20.244 40.8791ZM18.4709 40.9099C18.5371 40.9469 18.6034 40.9777 18.6718 41.0147L18.6034 41.175H18.736L18.7029 41.1421L19.1047 41.0147C19.142 41.0476 19.1834 41.0784 19.2393 41.0784V41.1113H19.2062V41.175H18.8686C18.8686 41.2263 18.8996 41.2757 18.9369 41.3106V41.4421L19.1047 41.4051H19.1379L19.2062 41.2407H19.4051V41.2777C19.4154 41.29 19.4299 41.2983 19.4382 41.3106L19.3388 41.475H19.4713L19.4382 41.4421L19.6743 41.1092H19.7054C19.84 41.1339 19.9747 41.1524 20.1073 41.1729V41.14L20.6437 41.4051H20.6085C20.5195 41.3764 20.4304 41.3414 20.3434 41.3085C20.1425 41.4174 20.0203 41.4853 19.9747 41.5058H19.9395C19.9395 41.2017 19.5708 41.2654 19.6018 41.4894C19.5815 41.5251 19.5708 41.5655 19.5708 41.6065C18.8582 41.5428 18.1436 41.475 17.429 41.4051L17.3958 41.3764C17.4683 41.2674 17.5077 41.1955 17.5284 41.1709V41.138C17.517 41.128 17.5066 41.117 17.4973 41.1051C17.6299 41.0537 17.7645 40.9962 17.8992 40.9407C17.8992 40.9839 17.8805 41.0085 17.8308 41.0085L17.7977 41.2058C17.7334 41.177 17.6672 41.138 17.5967 41.138V41.1709H17.6299V41.2078L17.5967 41.3085C17.7707 41.2921 17.9489 41.2613 18.1001 41.3414C18.2451 41.29 18.3901 41.2325 18.533 41.1729C18.5371 41.103 18.5019 41.0024 18.4709 40.9099Z" fill="#434C6D"/>
<path d="M19.1399 40.9099H19.173L19.2083 40.9777L19.1399 41.0147V40.9099ZM10.0734 40.9469V40.9798C10.0643 40.9931 10.0539 41.0055 10.0424 41.0168H10.1418C10.1439 40.9716 10.1232 40.9469 10.0734 40.9469ZM12.9175 40.9469L12.9858 41.0476V41.0805H13.0189C13.0324 41.0324 13.0557 40.9877 13.0873 40.949L12.9175 40.9469ZM15.2933 40.9469V40.9798H15.2602C15.2954 41.0168 15.3389 41.0476 15.3948 41.0476L15.428 40.9798H15.3948L15.2933 40.9469ZM15.9624 40.9469V41.0476L15.9955 41.0147L15.9624 40.9469ZM18.0711 40.9469C18.185 40.9674 18.2948 40.9901 18.4046 41.0147V41.0784L18.1063 41.0147L18.0711 40.9777V40.9469ZM12.2857 41.0147C12.2463 41.0476 12.3043 41.0784 12.352 41.1113C12.3285 41.0801 12.3063 41.0478 12.2857 41.0147ZM12.6171 41.0147C12.6275 41.0661 12.642 41.1236 12.6502 41.175V41.212H12.6834C12.6606 41.1421 12.644 41.0784 12.6171 41.0147ZM19.4734 41.0147C19.4982 41.0353 19.5003 41.0353 19.4734 41.0147V41.0147ZM13.5886 41.0476V41.1442C13.6569 41.136 13.7212 41.1236 13.7895 41.1113C13.7212 41.0907 13.6549 41.0661 13.5886 41.0476ZM15.662 41.1113V41.3435H15.6268V41.3805H15.1587L15.1256 41.4093C15.0803 41.3889 15.0354 41.3676 14.9909 41.3456V41.3825C14.9578 41.4113 14.9267 41.4463 14.8915 41.4791V41.512C14.9723 41.5038 15.051 41.4915 15.1256 41.4791L15.3948 41.6106L15.4611 41.51C15.5502 41.5469 15.6393 41.5778 15.7283 41.6106V41.5778H15.7946C15.8091 41.5182 15.8215 41.4565 15.8609 41.4093H15.8278L15.662 41.1113ZM17.8349 41.1113L17.9033 41.2428H17.8349V41.1113ZM7.53185 41.1421L7.76798 41.2777L6.66186 41.6435V41.6065H6.69708C6.98957 41.4784 7.26909 41.3229 7.53185 41.1421ZM8.80368 41.1421H8.97353V41.175C8.89482 41.1914 8.81818 41.1997 8.73946 41.212C8.76225 41.1997 8.78296 41.1914 8.80575 41.175L8.80368 41.1421ZM12.0164 41.1421L11.9812 41.2428H12.0495L12.0164 41.1421ZM14.6926 41.1421C14.7241 41.1661 14.7566 41.1887 14.79 41.2099C14.7568 41.1914 14.7258 41.1668 14.6926 41.1421ZM15.2602 41.1421L15.0924 41.2428L15.428 41.1421H15.2602ZM19.2745 41.1421H19.3408L19.2745 41.2099V41.1421ZM14.3591 41.175V41.212L14.2929 41.2449H14.2597C14.2929 41.2613 14.3239 41.2695 14.3591 41.2819H14.3944C14.413 41.2449 14.4378 41.214 14.4586 41.1771L14.3591 41.175ZM13.5886 41.212V41.3435C13.6279 41.3065 13.6673 41.2798 13.7212 41.2798V41.3127L13.7543 41.4093H13.7874V41.3805V41.2798V41.2428L13.5886 41.212ZM14.0567 41.212L14.0215 41.3127V41.2798L14.0567 41.212ZM8.5054 41.2428C8.53647 41.2593 8.56961 41.2675 8.60275 41.2798L8.53647 41.3127C8.52557 41.3022 8.5152 41.2913 8.5054 41.2798V41.2428ZM9.60945 41.2428C9.50795 41.2798 9.40852 41.3106 9.30702 41.3435V41.4072C9.39609 41.4442 9.48724 41.475 9.5763 41.5079C9.56388 41.4997 9.55352 41.4874 9.54316 41.475L9.77723 41.3435V41.2798C9.7213 41.2675 9.6633 41.2593 9.60945 41.2428ZM19.7406 41.3435H19.8773V41.3805L19.7406 41.3435ZM19.9788 41.3435V41.3805L20.012 41.4093H20.0451V41.3805L19.9788 41.3435ZM20.8467 41.3435C20.855 41.4195 20.8674 41.4997 20.8799 41.5757H20.8467C20.8343 41.5079 20.826 41.4442 20.8094 41.3784C20.8242 41.3695 20.8369 41.3576 20.8467 41.3435ZM14.4896 41.3805C14.5476 41.4093 14.6015 41.4442 14.6574 41.4771L14.6243 41.4442L14.5248 41.4072L14.4896 41.3805ZM9.1061 41.4072V41.4442H9.03774V41.4771H9.17238C9.14826 41.4558 9.12608 41.4324 9.1061 41.4072ZM19.6432 41.4072H19.809C19.8711 41.4709 19.9374 41.5346 19.9767 41.6086L19.6432 41.5757V41.4072ZM13.3214 41.4442V41.5757C13.2613 41.5757 13.2219 41.5285 13.1867 41.475C13.1768 41.487 13.1657 41.498 13.1536 41.5079V41.5449L13.253 41.7422C13.3089 41.7339 13.3649 41.7216 13.4208 41.7093L13.6197 41.4771C13.5182 41.4771 13.4208 41.4606 13.3214 41.4442ZM14.6926 41.4442C14.7361 41.4771 14.7817 41.5079 14.8231 41.5449V41.4771L14.6926 41.4442ZM20.3123 41.4442H20.3475L20.3786 41.5079L20.3123 41.5449V41.4442ZM8.86996 41.4771C8.81611 41.5017 8.76018 41.5202 8.70218 41.5449V41.5778H8.83682C8.86168 41.5449 8.88239 41.51 8.9031 41.4771H8.86996ZM12.787 41.4771L12.4845 41.6456C12.6606 41.6209 12.8408 41.5983 13.0189 41.5778L12.818 41.6106V41.5778L12.787 41.4771ZM13.9552 41.4771L13.6197 41.5449V41.5778H13.6549V41.6106C13.7336 41.6312 13.8123 41.6538 13.8869 41.6785C13.9 41.635 13.9118 41.5911 13.9221 41.5469L14.0567 41.6106H14.0899L13.9552 41.4771ZM6.42987 41.5079L6.59765 41.6435V41.6764L6.1958 41.8079V41.775L6.42987 41.5079ZM17.3668 41.5079L17.3999 41.5449C17.3907 41.5311 17.3795 41.5186 17.3668 41.5079ZM21.5158 41.5079H21.6152V41.5757H21.58L21.5158 41.5079ZM17.199 41.5449C17.5884 41.7134 17.837 41.5778 18.2036 41.5778L18.3383 41.7093H18.3714C18.4584 41.6764 18.5496 41.6456 18.6386 41.6086L18.7049 41.7401L19.0073 41.7771V41.81H18.9721L18.9058 41.9744H18.9721L19.0073 41.81H19.0405V41.8429L19.2745 41.81H19.3077V41.6785V41.6456H19.3408L19.4402 41.7422C19.4081 41.7662 19.3749 41.7888 19.3408 41.81C19.5065 41.8511 19.6764 41.9066 19.8421 41.9066L19.8773 41.8778C19.9767 41.9209 20.0762 41.9662 20.1756 42.0052L20.2108 41.9723L20.2439 42.0052C20.2647 42.0299 20.2874 42.0525 20.3102 42.073H20.041V42.1059L20.1072 42.2066C20.0534 42.1819 19.9975 42.1634 19.9395 42.1388C19.927 42.1306 19.9167 42.1182 19.9063 42.1059C19.6722 42.1305 19.4361 42.149 19.2041 42.1737L19.1689 41.9374C19.1563 41.928 19.1452 41.917 19.1358 41.9045C19.0674 41.9374 18.4998 42.1573 18.4998 42.073H18.4646V42.0401C18.5159 41.9896 18.5721 41.9441 18.6324 41.9045V41.8757C18.3859 41.9189 18.1415 41.9641 17.8991 42.0031V41.9703C17.9364 41.9292 18.0048 41.9025 18.0648 41.8737V41.8367H18.0296V41.8038C17.8743 41.8161 17.7189 41.8285 17.5615 41.8367H17.5263L17.5946 41.9333C17.5511 41.9333 17.4061 41.9497 17.1597 41.9703C17.1472 41.9826 17.1389 41.9949 17.1265 42.0031V41.9703H17.0934C17.0836 41.8605 17.0725 41.7509 17.0602 41.6415C17.112 41.6086 17.1555 41.5757 17.199 41.5449ZM20.3454 41.5449L20.4117 41.5778C20.3738 41.6378 20.3286 41.693 20.2771 41.7422V41.7093H20.2439C20.2735 41.652 20.3075 41.5971 20.3454 41.5449ZM21.6483 41.5449L21.8141 41.6764H21.7167V41.6435C21.6981 41.6086 21.6711 41.5757 21.6483 41.5449ZM12.3168 41.5757L11.1464 41.8408V41.9045C11.2126 41.9196 11.2797 41.9306 11.3473 41.9374L11.7803 41.81V41.8429L12.2836 41.81V41.7771L12.4141 41.6086C12.3851 41.5963 12.3499 41.588 12.3168 41.5757ZM8.80368 41.6086L8.23612 41.8778V42.0073H8.26926V41.9744C8.29307 41.9528 8.31588 41.9302 8.33762 41.9066L8.23612 41.8429L8.43704 41.9066L8.97146 41.6785V41.6106L8.80368 41.6086ZM11.0138 41.6764L10.6783 41.8079V42.0422C10.8109 41.9867 10.9434 41.9292 11.0801 41.8778C11.0577 41.8108 11.0356 41.7436 11.0138 41.6764ZM20.8467 41.6764H20.8799L20.9109 41.7093C20.8819 41.7771 20.7991 41.7853 20.7452 41.7422V41.7093C20.7784 41.697 20.8115 41.6846 20.8467 41.6764ZM8.94039 41.7093V41.7422H8.86996V41.7792H9.0046C8.98389 41.7524 8.9611 41.7339 8.94039 41.7093ZM12.5529 41.7093V41.7771C12.5736 41.7524 12.5964 41.7339 12.6192 41.7093H12.5529ZM7.93577 41.7401L7.90262 41.9374V41.9744H7.96684V41.9374C8.02484 41.9209 8.08076 41.8963 8.13669 41.8778V41.8408C8.06829 41.8101 8.00125 41.7765 7.93577 41.7401ZM15.8298 41.81L15.9976 41.8778H15.9645V41.9066H15.9313L15.8298 41.8429V41.81Z" fill="#434C6D"/>
<path d="M18.2036 41.8099V41.8428C18.1705 41.8798 18.1373 41.9065 18.1042 41.9394H18.1373V41.8798C18.185 41.8798 18.2306 41.888 18.2699 41.9086C18.2493 41.8748 18.2272 41.8419 18.2036 41.8099ZM15.4943 41.8777C15.5378 41.8983 15.573 41.9291 15.5937 41.9743H15.5253V42.0072H15.4943V41.8777ZM21.6484 41.8777L21.8141 41.9065V41.9394H21.7809V41.9764H21.7498C21.6923 41.9545 21.6349 41.9319 21.5779 41.9086L21.6484 41.8777ZM15.1256 41.9065C15.1628 41.9312 15.2022 41.9497 15.227 41.9743L15.1256 41.9065ZM7.53185 41.9373C7.34335 42.0421 7.15486 42.1387 6.96429 42.2374L6.66187 42.2045V42.4696C6.69708 42.4614 6.73022 42.449 6.76336 42.4367C6.92055 42.3275 7.10798 42.2694 7.29985 42.2702V42.2374H7.33299C7.36821 42.1819 7.40135 42.1285 7.43242 42.073V42.1058C7.49871 42.1264 7.66649 42.0545 7.66649 41.9743C7.62069 41.9656 7.57566 41.9532 7.53185 41.9373ZM13.6549 41.9373V41.9743C13.6648 41.9863 13.6759 41.9973 13.688 42.0072H13.7212V41.9743C13.6984 41.9661 13.6797 41.9538 13.6549 41.9373ZM9.94087 41.9743C9.86423 42.0545 9.78552 42.1305 9.70887 42.2065C9.7213 42.2189 9.73166 42.2271 9.73995 42.2394V42.2723L10.1439 42.1408V42.0771C10.0734 42.0421 10.0092 42.0052 9.94087 41.9743ZM10.3116 41.9743L10.2122 42.1387H10.2785V42.1757H10.3448C10.4069 42.112 10.4794 42.0627 10.4794 41.9743H10.3116ZM7.83427 42.0421L7.80113 42.075V42.1079C7.81111 42.1199 7.8222 42.1309 7.83427 42.1408H7.86741C7.85761 42.1075 7.84656 42.0746 7.83427 42.0421ZM11.8134 42.0421L11.6808 42.1737V42.2065H11.714V42.2394C11.7927 42.2517 11.8735 42.2641 11.9501 42.2723V42.2394H12.0164L11.8134 42.0421ZM15.8298 42.0421L16.1654 42.075V42.1387H16.1322V42.1757C15.9106 42.1511 15.6869 42.1326 15.4632 42.1079L15.8298 42.0421ZM16.53 42.075L16.4989 42.1757C16.5092 42.1511 16.5217 42.1326 16.53 42.1079V42.075ZM9.07296 42.1387L9.13924 42.4079H9.17239V42.3709C9.18441 42.3505 9.19479 42.3292 9.20346 42.3072C9.15996 42.2517 9.11646 42.1983 9.07296 42.1387ZM17.199 42.1387L17.3999 42.1757V42.2394L17.1659 42.2065C17.1783 42.1983 17.1887 42.1819 17.199 42.1737V42.1387ZM18.4377 42.1737C18.5247 42.1819 18.6158 42.1983 18.7049 42.2065V42.2394C18.6154 42.2194 18.5263 42.1975 18.4377 42.1737ZM21.0456 42.1737H21.0808L21.1139 42.2065L21.0456 42.2394V42.1737ZM20.6106 42.2065H20.6458V42.2394C20.6044 42.2394 20.5878 42.2353 20.6106 42.2065ZM21.1471 42.2065L21.2465 42.2702C21.2134 42.2517 21.1802 42.2271 21.1471 42.2065ZM19.3077 42.2702L19.4071 42.3072V42.3709C19.376 42.3401 19.3408 42.3072 19.3077 42.2702ZM19.4734 42.3072H19.5065L19.5438 42.3401C19.521 42.3524 19.4983 42.3648 19.4755 42.373L19.4734 42.3072ZM12.0827 42.4716H12.1179V42.5045H12.0516C12.063 42.4945 12.0734 42.4835 12.0827 42.4716ZM12.2173 42.4716H12.3499V42.6031H12.3168L12.2173 42.4716Z" fill="#434C6D"/>
</g>
<defs>
<clipPath id="clip0_1037_520">
<rect width="120" height="46" fill="white"/>
</clipPath>
</defs>
</svg>
